<?xml version="1.0" encoding="UTF-8" standalone="no"?>
<!-- Created with Inkscape (http://www.inkscape.org/) -->

<svg
   xmlns:dc="http://purl.org/dc/elements/1.1/"
   xmlns:cc="http://creativecommons.org/ns#"
   xmlns:rdf="http://www.w3.org/1999/02/22-rdf-syntax-ns#"
   xmlns:svg="http://www.w3.org/2000/svg"
   xmlns="http://www.w3.org/2000/svg"
   xmlns:sodipodi="http://sodipodi.sourceforge.net/DTD/sodipodi-0.dtd"
   xmlns:inkscape="http://www.inkscape.org/namespaces/inkscape"
   width="100"
   height="100"
   id="svg2"
   version="1.1"
   inkscape:version="0.48.2 r9819"
   sodipodi:docname="rabble_onyx.svg">
  <defs
     id="defs4" />
  <sodipodi:namedview
     id="base"
     pagecolor="#ffffff"
     bordercolor="#666666"
     borderopacity="1.0"
     inkscape:pageopacity="0.0"
     inkscape:pageshadow="2"
     inkscape:zoom="5.6"
     inkscape:cx="36.275363"
     inkscape:cy="57.372334"
     inkscape:document-units="px"
     inkscape:current-layer="layer1"
     showgrid="false"
     inkscape:window-width="1327"
     inkscape:window-height="891"
     inkscape:window-x="316"
     inkscape:window-y="83"
     inkscape:window-maximized="0" />
  <metadata
     id="metadata7">
    <rdf:RDF>
      <cc:Work
         rdf:about="">
        <dc:format>image/svg+xml</dc:format>
        <dc:type
           rdf:resource="http://purl.org/dc/dcmitype/StillImage" />
        <dc:title></dc:title>
      </cc:Work>
    </rdf:RDF>
  </metadata>
  <g
     inkscape:label="Layer 1"
     inkscape:groupmode="layer"
     id="layer1"
     transform="translate(0,-952.36218)">
    <path
       style="fill:#f3efdf;stroke:#000000;stroke-width:1;stroke-linecap:butt;stroke-linejoin:miter;stroke-miterlimit:4;stroke-opacity:1;stroke-dasharray:none;fill-opacity:1"
       d="m 33.674326,982.27664 35.73044,56.08556 2.530167,-1.6118 -35.730432,-56.08567 -0.46276,-0.14832 c 0,0 0.07433,-1.21857 -0.03767,-1.81234 -0.124913,-0.66216 -0.345596,-1.32266 -0.697177,-1.89752 -0.323313,-0.52864 -0.786361,-0.96765 -1.261326,-1.36565 -0.446093,-0.37381 -0.952504,-0.67592 -1.47014,-0.94196 -0.532601,-0.27374 -1.089591,-0.51283 -1.668533,-0.66586 -0.536952,-0.14194 -1.650542,-0.22782 -1.650542,-0.22782 0,0 0.353634,-0.90302 0.566977,-1.33786 0.231265,-0.47136 0.588041,-0.88142 0.770866,-1.3736 0.168744,-0.45428 0.298502,-0.94037 0.28871,-1.42487 -0.0094,-0.4637 -0.127386,-0.93479 -0.331193,-1.35139 -0.26523,-0.54216 -0.656772,-1.03744 -1.123863,-1.41969 -0.484684,-0.39662 -1.674738,-0.85164 -1.674738,-0.85164 l -6.869987,0.52496 -4.41822,0.38216 L 10.5,987.79592 24.258615,985.11224 c 0,0 1.373182,-1.06827 1.977669,-1.68996 0.524211,-0.53913 1.037072,-1.10647 1.416836,-1.7555 0.352113,-0.60178 0.696955,-1.24984 0.775392,-1.94265 0.07717,-0.68163 -0.29048,-1.34803 -0.316272,-2.03353 -0.02786,-0.74133 0.175794,-2.21861 0.175794,-2.21861 0,0 1.695852,0.238 2.503294,0.50825 0.524808,0.17562 1.06163,0.37532 1.498157,0.71549 0.387094,0.30164 0.6823,0.71546 0.939879,1.13317 0.280507,0.45482 0.510479,0.95081 0.642989,1.46848 0.13684,0.5346 0.146269,1.64904 0.146269,1.64904 z"
       id="path3010"
       inkscape:connector-curvature="0"
       sodipodi:nodetypes="cccccssssscssssscccccsssscsssscc" />
    <path
       sodipodi:nodetypes="ccccssccccssccccccccccccssccccssc"
       inkscape:connector-curvature="0"
       id="path2998"
       d="m 61.795062,987.79892 -37.580533,48.68258 2.450883,1.8807 37.43887,-48.79135 c 0,0 4.406351,3.22595 6.955532,4.07669 0.921843,0.30765 1.952608,0.5631 2.896517,0.33191 1.023822,-0.2508 2.619636,-1.7713 2.619636,-1.7713 l 10.348986,-13.48697 -1.586758,-1.21745 -10.044551,13.09022 c 0,0 -0.801036,0.74811 -1.309818,0.88566 -0.580091,0.15682 -1.22439,0.0568 -1.798768,-0.11977 -0.64217,-0.19746 -1.738872,-1.01917 -1.738872,-1.01917 l 11.718633,-15.27202 -1.586703,-1.21752 -11.870824,15.47036 -3.325597,-2.23671 12.023014,-15.6687 -1.572543,-1.20665 -12.051337,15.64697 -3.007054,-2.62251 11.870823,-15.47036 -1.586703,-1.21752 -11.718634,15.27202 c 0,0 -1.077581,-0.84665 -1.434513,-1.41586 -0.319274,-0.50911 -0.58265,-1.10559 -0.581309,-1.70653 0.0012,-0.52704 0.516516,-1.49439 0.516516,-1.49439 l 10.044538,-13.09029 -1.586752,-1.21755 -10.348833,13.48695 c 0,0 -1.055734,1.93498 -1.033018,2.98884 0.02094,0.97161 0.533926,1.9015 1.070236,2.71194 1.499379,2.26578 5.80893,5.71782 5.80893,5.71782 z"
       style="fill:#f3efdf;stroke:#000000;stroke-width:0.99999899000000003px;stroke-linecap:butt;stroke-linejoin:miter;stroke-opacity:1;fill-opacity:1" />
  </g>
</svg>
