<?xml version="1.0" encoding="UTF-8" standalone="no"?>
<!-- Created with Inkscape (http://www.inkscape.org/) -->

<svg
   xmlns:dc="http://purl.org/dc/elements/1.1/"
   xmlns:cc="http://creativecommons.org/ns#"
   xmlns:rdf="http://www.w3.org/1999/02/22-rdf-syntax-ns#"
   xmlns:svg="http://www.w3.org/2000/svg"
   xmlns="http://www.w3.org/2000/svg"
   xmlns:sodipodi="http://sodipodi.sourceforge.net/DTD/sodipodi-0.dtd"
   xmlns:inkscape="http://www.inkscape.org/namespaces/inkscape"
   width="100"
   height="100"
   id="svg2"
   version="1.1"
   inkscape:version="0.48.2 r9819"
   sodipodi:docname="New document 1">
  <defs
     id="defs4">
    <marker
       inkscape:stockid="Arrow2Lend"
       orient="auto"
       refY="0.0"
       refX="0.0"
       id="Arrow2Lend"
       style="overflow:visible;">
      <path
         id="path3833"
         style="font-size:12.0;fill-rule:evenodd;stroke-width:0.62500000;stroke-linejoin:round;"
         d="M 8.7185878,4.0337352 L -2.2072895,0.016013256 L 8.7185884,-4.0017078 C 6.9730900,-1.6296469 6.9831476,1.6157441 8.7185878,4.0337352 z "
         transform="scale(1.1) rotate(180) translate(1,0)" />
    </marker>
  </defs>
  <sodipodi:namedview
     id="base"
     pagecolor="#ffffff"
     bordercolor="#666666"
     borderopacity="1.0"
     inkscape:pageopacity="0.0"
     inkscape:pageshadow="2"
     inkscape:zoom="5.6"
     inkscape:cx="27.588574"
     inkscape:cy="50.261519"
     inkscape:document-units="px"
     inkscape:current-layer="layer1"
     showgrid="false"
     inkscape:window-width="1398"
     inkscape:window-height="857"
     inkscape:window-x="135"
     inkscape:window-y="57"
     inkscape:window-maximized="0" />
  <metadata
     id="metadata7">
    <rdf:RDF>
      <cc:Work
         rdf:about="">
        <dc:format>image/svg+xml</dc:format>
        <dc:type
           rdf:resource="http://purl.org/dc/dcmitype/StillImage" />
        <dc:title></dc:title>
      </cc:Work>
    </rdf:RDF>
  </metadata>
  <g
     inkscape:label="Layer 1"
     inkscape:groupmode="layer"
     id="layer1"
     transform="translate(0,-952.36218)">
    <g
       id="g5044"
       transform="matrix(-0.70710678,-0.70710678,-0.70710678,0.70710678,794.93752,328.13534)">
      <path
         sodipodi:nodetypes="ccccccccccccc"
         transform="translate(0,952.36218)"
         inkscape:connector-curvature="0"
         id="path4854"
         d="m 47,18 0,42 1,10 0,35 4,0 0,-35 1,-10 0,-42 -2,0 0,32 -2,0 0,-32 z"
         style="fill:#f3efdf;fill-opacity:1;stroke:#000000;stroke-width:1px;stroke-linecap:butt;stroke-linejoin:miter;stroke-opacity:1" />
      <path
         sodipodi:nodetypes="csssssssssccssssssssscc"
         inkscape:connector-curvature="0"
         id="path4829"
         d="m 84,981.36218 c 0,0 -3.392325,-0.44839 -5,-1 -1.410025,-0.48379 -2.758112,-1.17542 -4,-2 -2.560217,-1.69992 -4.439783,-4.30008 -7,-6 -2.483776,-1.64917 -5.136056,-3.17132 -8,-4 -3.217956,-0.93112 -6.650041,-1 -10,-1 -3.349959,0 -6.782044,0.0689 -10,1 -2.863944,0.82868 -5.516224,2.35083 -8,4 -2.560217,1.69992 -4.439783,4.30008 -7,6 -1.241888,0.82458 -2.589975,1.51621 -4,2 -1.607675,0.55161 -5,1 -5,1 l 0,1 c 0,0 4.014985,0.24437 6,0 1.364071,-0.16792 2.752248,-0.4238 4,-1 2.603273,-1.20216 4.543448,-3.52096 7,-5 2.554202,-1.53784 5.140653,-3.15559 8,-4 2.894869,-0.8549 5.981538,-1 9,-1 3.018462,0 6.105131,0.1451 9,1 2.859347,0.84441 5.445798,2.46216 8,4 2.456552,1.47904 4.396727,3.79784 7,5 1.247752,0.5762 2.635929,0.83208 4,1 1.985015,0.24437 6,0 6,0 z"
         style="fill:#f3efdf;fill-opacity:1;stroke:#000000;stroke-width:1px;stroke-linecap:butt;stroke-linejoin:miter;stroke-opacity:1" />
      <path
         sodipodi:nodetypes="ccc"
         transform="translate(0,952.36218)"
         inkscape:connector-curvature="0"
         id="path4856"
         d="m 16,29.5 34,20 34,-20"
         style="fill:none;stroke:#000000;stroke-width:1px;stroke-linecap:butt;stroke-linejoin:miter;stroke-opacity:1" />
      <path
         sodipodi:nodetypes="cc"
         transform="translate(0,952.36218)"
         inkscape:connector-curvature="0"
         id="path4858"
         d="M 50,50 50,4.9999998"
         style="fill:none;stroke:#000000;stroke-width:0.5;stroke-linecap:butt;stroke-linejoin:miter;stroke-miterlimit:4;stroke-opacity:1;stroke-dasharray:none;marker-end:url(#Arrow2Lend)" />
    </g>
  </g>
</svg>
