<?xml version="1.0" encoding="UTF-8" standalone="no"?>
<!-- Created with Inkscape (http://www.inkscape.org/) -->

<svg
   xmlns:dc="http://purl.org/dc/elements/1.1/"
   xmlns:cc="http://creativecommons.org/ns#"
   xmlns:rdf="http://www.w3.org/1999/02/22-rdf-syntax-ns#"
   xmlns:svg="http://www.w3.org/2000/svg"
   xmlns="http://www.w3.org/2000/svg"
   xmlns:xlink="http://www.w3.org/1999/xlink"
   xmlns:sodipodi="http://sodipodi.sourceforge.net/DTD/sodipodi-0.dtd"
   xmlns:inkscape="http://www.inkscape.org/namespaces/inkscape"
   width="100"
   height="100"
   id="svg2"
   version="1.1"
   inkscape:version="0.48.2 r9819"
   sodipodi:docname="dragon_onyx.svg">
  <defs
     id="defs4">
    <linearGradient
       id="linearGradient3875">
      <stop
         id="stop3883"
         offset="0"
         style="stop-color:#747900;stop-opacity:0.49803922;" />
      <stop
         style="stop-color:#b93c00;stop-opacity:0.37254902;"
         offset="0.25"
         id="stop3887" />
      <stop
         style="stop-color:#ff0000;stop-opacity:0.24705882;"
         offset="0.5"
         id="stop3885" />
      <stop
         style="stop-color:#ff0000;stop-opacity:0;"
         offset="1"
         id="stop3879" />
    </linearGradient>
    <linearGradient
       inkscape:collect="always"
       xlink:href="#linearGradient3875"
       id="linearGradient3881"
       x1="10.217285"
       y1="30.425743"
       x2="26.716423"
       y2="30.425743"
       gradientUnits="userSpaceOnUse"
       spreadMethod="repeat"
       gradientTransform="translate(-2.9041885,950.72068)" />
    <linearGradient
       inkscape:collect="always"
       xlink:href="#linearGradient3875-2"
       id="linearGradient3881-5"
       x1="10.217285"
       y1="30.425743"
       x2="26.716423"
       y2="30.425743"
       gradientUnits="userSpaceOnUse"
       spreadMethod="repeat" />
    <linearGradient
       id="linearGradient3875-2">
      <stop
         id="stop3883-3"
         offset="0"
         style="stop-color:#977900;stop-opacity:0.49803922;" />
      <stop
         style="stop-color:#b93c00;stop-opacity:0.37254902;"
         offset="0.25"
         id="stop3887-1" />
      <stop
         style="stop-color:#ff0000;stop-opacity:0.24705882;"
         offset="0.5"
         id="stop3885-6" />
      <stop
         style="stop-color:#ff0000;stop-opacity:0;"
         offset="1"
         id="stop3879-8" />
    </linearGradient>
    <linearGradient
       gradientTransform="translate(0.15783407,952.29909)"
       y2="30.425743"
       x2="26.716423"
       y1="30.425743"
       x1="10.217285"
       spreadMethod="repeat"
       gradientUnits="userSpaceOnUse"
       id="linearGradient3912"
       xlink:href="#linearGradient3875-2"
       inkscape:collect="always" />
    <linearGradient
       gradientTransform="translate(0.15783407,952.29909)"
       y2="30.425743"
       x2="26.716423"
       y1="30.425743"
       x1="10.217285"
       spreadMethod="repeat"
       gradientUnits="userSpaceOnUse"
       id="linearGradient3912-7"
       xlink:href="#linearGradient3875-2-1"
       inkscape:collect="always" />
    <linearGradient
       id="linearGradient3875-2-1">
      <stop
         id="stop3883-3-2"
         offset="0"
         style="stop-color:#e17900;stop-opacity:0.49803922;" />
      <stop
         style="stop-color:#b93c00;stop-opacity:0.37254902;"
         offset="0.25"
         id="stop3887-1-6" />
      <stop
         style="stop-color:#ff0000;stop-opacity:0.24705882;"
         offset="0.5"
         id="stop3885-6-0" />
      <stop
         style="stop-color:#ff0000;stop-opacity:0;"
         offset="1"
         id="stop3879-8-4" />
    </linearGradient>
    <linearGradient
       y2="30.425743"
       x2="26.716423"
       y1="30.425743"
       x1="10.217285"
       spreadMethod="repeat"
       gradientTransform="translate(0.15783407,952.29909)"
       gradientUnits="userSpaceOnUse"
       id="linearGradient3958"
       xlink:href="#linearGradient3875-2-1"
       inkscape:collect="always" />
  </defs>
  <sodipodi:namedview
     id="base"
     pagecolor="#ffffff"
     bordercolor="#666666"
     borderopacity="1.0"
     inkscape:pageopacity="0.0"
     inkscape:pageshadow="2"
     inkscape:zoom="5.6"
     inkscape:cx="9.4713421"
     inkscape:cy="49.32043"
     inkscape:document-units="px"
     inkscape:current-layer="layer1"
     showgrid="false"
     inkscape:window-width="1271"
     inkscape:window-height="732"
     inkscape:window-x="69"
     inkscape:window-y="69"
     inkscape:window-maximized="0" />
  <metadata
     id="metadata7">
    <rdf:RDF>
      <cc:Work
         rdf:about="">
        <dc:format>image/svg+xml</dc:format>
        <dc:type
           rdf:resource="http://purl.org/dc/dcmitype/StillImage" />
        <dc:title></dc:title>
      </cc:Work>
    </rdf:RDF>
  </metadata>
  <g
     inkscape:label="Layer 1"
     inkscape:groupmode="layer"
     id="layer1"
     transform="translate(0,-952.36218)">
    <path
       style="fill:#f3efdf;fill-opacity:1;stroke:#000000;stroke-width:1.12699996999999996;stroke-linecap:butt;stroke-linejoin:miter;stroke-miterlimit:4;stroke-opacity:1;stroke-dasharray:none"
       d="m 47.475738,1023.6924 c 2.227174,1.58 3.79376,4.5144 3.823762,7.245 0.0082,0.75 -1.006253,2.0125 -1.006253,2.0125 l -3.220011,2.0125 -6.23877,3.22 -3.220011,0.805 1.811257,0.6038 -0.905628,1.1068 1.911881,-0.3018 1.207504,0.4025 4.628766,-1.2075 2.415007,0 0,-1.61 7.245024,-5.2326 2.616258,0.6038 c 0,0 -2.538359,-2.0522 -3.01876,-3.5219 -0.271755,-0.8314 -0.553556,-2.1743 0.201251,-2.6162 0.89357,-0.5232 1.827095,1.006 2.81751,1.3081 2.046511,0.6242 4.288484,0.3967 6.339396,1.0062 1.496778,0.4449 3.078656,0.9103 4.276575,1.9119 1.02775,0.8594 2.26407,3.3207 2.26407,3.3207 l -1.106878,1.8112 -2.213758,-0.1006 -2.515633,2.0125 2.61626,0.2012 5.433767,-0.1006 0.805003,-3.4212 2.314382,-1.1069 -4.125638,-4.3269 c 0,0 4.78967,-0.9758 6.842522,-2.2138 1.564028,-0.9431 3.086906,-2.2006 3.924388,-3.8237 0.700435,-1.3575 0.908217,-3.0143 0.704377,-4.5282 -0.240412,-1.7855 -1.2453,-3.4114 -2.213757,-4.9306 -0.882022,-1.3836 -2.20384,-2.4349 -3.220011,-3.7231 -0.997312,-1.2644 -2.284082,-2.405 -2.817509,-3.9244 -0.42279,-1.2043 -0.676517,-2.6392 -0.201251,-3.8238 0.291577,-0.7267 0.992415,-1.298 1.710631,-1.61 0.955698,-0.4151 2.314383,-0.6038 3.119385,-0.2013 0.805003,0.4025 2.886308,1.2562 4.427515,1.4088 0.906767,0.09 2.476982,0.5772 2.716884,-0.3019 0.220773,-0.8089 -1.283237,-1.0954 -2.012508,-1.5094 -1.923064,-1.09142 -3.935668,-2.3192 -6.138144,-2.51559 -1.913389,-0.17061 -3.990918,0.21397 -5.635018,1.2075 -0.896842,0.54197 -2.012507,2.41499 -2.012507,2.41499 l -0.20125,0.2642 3.521886,3.786 -0.10063,1.2704 -3.320636,0.063 c 0,0 1.089614,3.3821 2.012506,4.8803 0.860555,1.397 2.337402,2.3399 3.220011,3.7231 0.593554,0.9302 1.236267,1.9221 1.358443,3.0188 0.102332,0.9185 0.0089,1.9834 -0.55344,2.7169 -0.501947,0.6547 -1.404946,0.9441 -2.213757,1.1069 -0.988676,0.1989 -2.035825,0.024 -3.01876,-0.2013 -1.481273,-0.3399 -2.952371,-0.8818 -4.226264,-1.7106 -1.212862,-0.7891 -2.143069,-1.9508 -3.119385,-3.0188 -0.756388,-0.8274 -1.244382,-1.9077 -2.113132,-2.6162 -1.755489,-1.4317 -6.03752,-3.1194 -6.03752,-3.1194 l 2.113132,-1.9119 5.936899,-2.8175 4.72939,-0.1006 5.081579,-0.1007 0.55344,-1.1572 -3.169698,-3.069 c 0,0 -2.012974,-2.1922 -2.918135,-3.37098 -0.691259,-0.90019 -1.898165,-1.68261 -1.91188,-2.81751 -0.0088,-0.72798 0.661447,-1.32778 1.182347,-1.83641 0.79436,-0.77564 1.798244,-1.3592 2.842665,-1.73578 1.099963,-0.39661 2.30532,-0.41905 3.471574,-0.50312 1.104014,-0.0796 2.213782,-0.007 3.320636,-10e-6 1.241131,0.008 2.482007,0.0419 3.723138,0.0503 1.509346,0.0101 4.52814,0 4.52814,0 L 85.4618,991.6936 72.330194,988.5239 71.273628,988.17171 c 0,0 2.571425,-1.25694 3.924389,-1.71063 1.291977,-0.43323 2.621895,-0.79218 3.9747,-0.95594 3.396508,-0.41114 10.263784,-0.0503 10.263784,-0.0503 l -2.438557,-1.67104 c 0,0 -7.466175,-1.67698 -11.580799,-2.8428 -1.604886,-0.45472 -4.308279,-0.87394 -5.602583,-1.92618 -0.768544,-0.62481 -1.408755,-1.62578 -1.408755,-2.61626 0,-0.99048 0.611441,-2.0286 1.408755,-2.61626 1.305112,-0.96192 4.773165,-0.9351 4.773165,-0.9351 l -1.319469,-1.47991 c 0,0 -4.297894,0.33388 -6.449776,0.29682 -1.450551,-0.025 -2.691958,-0.0194 -4.136979,-0.1484 -0.948769,-0.0847 -2.210905,-0.0202 -3.04527,-0.47976 -0.431408,-0.2376 -0.75041,-0.69911 -0.907723,-1.16582 -0.162014,-0.48066 -0.196037,-1.06139 0.01727,-1.52159 0.559962,-1.20811 3.018761,-2.61626 3.018761,-2.61626 l -1.134258,-0.56713 c 0,0 -2.365986,1.19504 -3.563566,1.76242 -1.606254,0.76101 -3.088671,2.01751 -4.856527,2.20155 -0.579196,0.0603 -1.293716,0.0336 -1.705573,-0.37808 -0.277378,-0.27726 -0.356345,-0.76966 -0.255139,-1.14856 0.167035,-0.62535 0.825682,-1.00401 1.310222,-1.43317 0.834258,-0.73891 3.023816,-3.04823 3.023816,-3.04823 l -2.75228,0.94225 c 0,0 -2.292055,1.01143 -3.271803,1.78265 -1.654058,1.30201 -3.049711,2.90412 -4.512971,4.4174 -0.556064,0.57507 -1.180195,1.10232 -1.620118,1.77044 -0.746813,1.1342 -1.548023,2.36196 -1.674187,3.71408 -0.163678,1.75417 0.444381,3.56677 1.243081,5.13712 0.895971,1.7616 2.769812,2.85687 3.835969,4.52099 1.204949,1.88076 2.234679,3.92122 2.829718,6.07414 0.244996,0.88643 0.585358,1.87517 0.284611,2.74427 -0.765838,2.21312 -3.444964,3.20185 -4.888961,5.04557 -1.210508,1.54561 -1.822151,3.52341 -3.124441,4.99251 -1.171802,1.3219 -4.122677,3.3299 -4.122677,3.3299 0,0 2.346393,-4.0803 2.876454,-6.3394 0.309994,-1.32121 0.317906,-2.72309 0.142305,-4.06877 -0.179443,-1.37512 -0.561453,-2.75414 -1.207503,-3.98124 -0.400218,-0.76017 -1.139689,-1.29359 -1.610006,-2.0125 -0.618783,-0.94585 -1.577569,-3.0015 -1.577569,-3.0015 l 0.873193,-4.9479 -3.465036,2.91098 -2.400705,-0.36082 -1.570854,-0.22104 -2.167456,-0.23116 c 0,0 -2.000797,0.0193 -2.991815,0.14021 -0.905004,0.11041 -1.907131,0.0534 -2.682788,0.5326 -0.830618,0.5131 -1.645514,1.34907 -1.795942,2.31373 -0.107929,0.69212 0.344785,1.38328 0.721931,1.97357 0.249771,0.39093 0.568605,0.77878 0.985089,0.98311 0.608823,0.2987 1.349911,0.14211 2.017846,0.25936 0.798462,0.14017 1.60932,0.25961 2.373545,0.53007 1.328786,0.47026 2.813133,0.8614 3.788007,1.87945 0.826343,0.86294 1.114403,2.13092 1.452529,3.27686 0.365181,1.23764 0.716815,2.53837 0.603753,3.82379 -0.09015,1.025 -10e-7,2.1131 -1.006255,2.9181 -1.006253,0.805 -2.616258,5.0313 -2.616258,5.0313 l -1.811256,4.83 -2.817509,5.9339 -2.75647,6.6981 c 0,0 -0.492632,2.7918 -1.067292,4.0718 -0.669595,1.4915 -1.471403,3.0254 -2.718979,4.082 -0.678832,0.575 -1.640618,0.692 -2.434367,1.0937 -1.155764,0.5848 -3.382543,1.9127 -3.382543,1.9127 l 4.285208,0.2013 6.15158,-0.7074 -1.593968,-1.3254 4.242662,-6.424 3.153046,-0.7785 -1.508512,-1.0386 c 0,0 1.20433,-1.3403 1.676969,-2.1018 0.604759,-0.9744 0.864052,-2.3785 1.960714,-2.714 1.152612,-0.3525 1.987769,0.4167 2.598993,1.4555 0.370269,0.6294 0.09716,1.4597 0.07115,2.1894 -0.04055,1.1377 -0.353669,3.3968 -0.353669,3.3968 l -1.683253,3.1733 -1.408754,2.415 -1.099728,0.7583 -1.939259,0.4248 -1.738008,1.0429 c 0,0 -2.66928,1.1953 -1.461776,1.1953 1.207504,0 5.433768,-0.2114 5.433768,-0.2114 l 2.888662,-0.3558 4.155111,-0.8416 c 0,0 -1.811256,-0.805 -1.408755,-1.61 0.402502,-0.805 3.823763,-8.05 3.823763,-8.05 l 2.697525,-1.3376 c 0,0 -1.73412,-1.1268 -1.628317,-1.9729 0.07337,-0.5868 0.875525,-0.846 1.431255,-1.048 1.300014,-0.4724 2.758813,-0.3282 4.140809,-0.2703 1.355496,0.057 2.918512,-0.1812 4.025022,0.6038 z"
       id="path3053"
       inkscape:connector-curvature="0"
       sodipodi:nodetypes="cscccccccccccccssssscccccccccsssssssssssssscccccssssssssscccccccsssssssccccssccssssccsssssccsssssccsssssssssscssssccccccsssssssssssccccssscccccccssssccccccscccsccssssc" />
    <path
       style="fill:none;stroke:#000000;stroke-width:1.12700367px;stroke-linecap:butt;stroke-linejoin:miter;stroke-opacity:1"
       d="M 74.443327,1005.3786 48.280741,995.71853"
       id="path4081"
       inkscape:connector-curvature="0" />
    <path
       style="fill:none;stroke:#000000;stroke-width:1.12700367px;stroke-linecap:butt;stroke-linejoin:miter;stroke-opacity:1"
       d="m 70.619564,988.27225 c 0,0 -2.185132,1.20052 -2.81751,2.21376 -0.508538,0.81482 -0.502563,1.86236 -0.603751,2.81751 -0.09187,0.86723 0.20125,3.32063 0.20125,3.32063"
       id="path4083"
       inkscape:connector-curvature="0"
       sodipodi:nodetypes="cssc" />
    <path
       style="fill:none;stroke:#000000;stroke-width:1.12700367px;stroke-linecap:butt;stroke-linejoin:miter;stroke-opacity:1"
       d="m 88.128372,984.44849 -42.66514,0.20125"
       id="path4085"
       inkscape:connector-curvature="0" />
    <path
       style="fill:none;stroke:#000000;stroke-width:1.12700367px;stroke-linecap:butt;stroke-linejoin:miter;stroke-opacity:1"
       d="m 73.638324,971.97095 -30.992603,9.86128"
       id="path4087"
       inkscape:connector-curvature="0"
       sodipodi:nodetypes="cc" />
    <path
       style="fill:none;stroke:#000000;stroke-width:1.12700367px;stroke-linecap:butt;stroke-linejoin:miter;stroke-opacity:1"
       d="M 60.355781,965.53093 41.639469,978.20972"
       id="path4089"
       inkscape:connector-curvature="0" />
    <path
       style="fill:none;stroke:#000000;stroke-width:1.12700367px;stroke-linecap:butt;stroke-linejoin:miter;stroke-opacity:1"
       d="m 57.231339,1011.9141 -5.831213,-3.0137 -5.131891,-1.1068 -4.977378,-0.491 -4.351307,0.1129"
       id="path4091"
       inkscape:connector-curvature="0"
       sodipodi:nodetypes="ccccc" />
    <path
       sodipodi:type="arc"
       style="fill:#000000;fill-opacity:1;fill-rule:nonzero;stroke:#000000;stroke-width:0;stroke-miterlimit:4;stroke-opacity:1;stroke-dasharray:none"
       id="path4163"
       sodipodi:cx="24.330357"
       sodipodi:cy="29.330357"
       sodipodi:rx="1.3839285"
       sodipodi:ry="0.58035713"
       d="m 25.714285,29.330357 c 0,0.320522 -0.619606,0.580357 -1.383928,0.580357 -0.764323,0 -1.383929,-0.259835 -1.383929,-0.580357 0,-0.320523 0.619606,-0.580358 1.383929,-0.580358 0.764322,0 1.383928,0.259835 1.383928,0.580358 z"
       transform="matrix(1.1270037,0,0,1.1270037,-2.5350513,954.46215)" />
  </g>
</svg>
