<?xml version="1.0" encoding="UTF-8" standalone="no"?>
<!-- Created with Inkscape (http://www.inkscape.org/) -->

<svg
   xmlns:dc="http://purl.org/dc/elements/1.1/"
   xmlns:cc="http://creativecommons.org/ns#"
   xmlns:rdf="http://www.w3.org/1999/02/22-rdf-syntax-ns#"
   xmlns:svg="http://www.w3.org/2000/svg"
   xmlns="http://www.w3.org/2000/svg"
   xmlns:sodipodi="http://sodipodi.sourceforge.net/DTD/sodipodi-0.dtd"
   xmlns:inkscape="http://www.inkscape.org/namespaces/inkscape"
   width="100"
   height="100"
   id="svg2"
   version="1.1"
   inkscape:version="0.48.2 r9819"
   sodipodi:docname="heavy_horse_onyx.svg">
  <defs
     id="defs4" />
  <sodipodi:namedview
     id="base"
     pagecolor="#ffffff"
     bordercolor="#666666"
     borderopacity="1.0"
     inkscape:pageopacity="0.0"
     inkscape:pageshadow="2"
     inkscape:zoom="5.6"
     inkscape:cx="20.833374"
     inkscape:cy="32.970457"
     inkscape:document-units="px"
     inkscape:current-layer="layer1"
     showgrid="false"
     inkscape:window-width="1570"
     inkscape:window-height="824"
     inkscape:window-x="23"
     inkscape:window-y="23"
     inkscape:window-maximized="0" />
  <metadata
     id="metadata7">
    <rdf:RDF>
      <cc:Work
         rdf:about="">
        <dc:format>image/svg+xml</dc:format>
        <dc:type
           rdf:resource="http://purl.org/dc/dcmitype/StillImage" />
        <dc:title></dc:title>
      </cc:Work>
    </rdf:RDF>
  </metadata>
  <g
     inkscape:label="Layer 1"
     inkscape:groupmode="layer"
     id="layer1"
     transform="translate(0,-952.36218)">
    <path
       style="fill:#f3efdf;fill-opacity:1;stroke:#000000;stroke-width:1.09038221999999996px;stroke-linecap:butt;stroke-linejoin:miter;stroke-opacity:1"
       d="m 19.788136,975.05914 -4.337808,-4.44697 1.07783,6.32643 z"
       id="path3785"
       inkscape:connector-curvature="0"
       sodipodi:nodetypes="cccc" />
    <path
       style="fill:#f3efdf;fill-opacity:1;stroke:#000000;stroke-width:1.09038221999999996;stroke-linecap:butt;stroke-linejoin:miter;stroke-miterlimit:4;stroke-opacity:1;stroke-dasharray:none"
       d="m 86.943916,1033.8532 -1.101453,0.9638 -6.104917,-0.2984 c 0,0 1.478431,-1.4199 1.985152,-2.1799 0.301913,-0.4528 1.196118,-0.8531 1.434425,-1.3424 0.152549,-0.3132 -0.596391,-1.0293 -0.574099,-1.377 0.187804,-2.929 -1.767034,-7.2849 -1.767034,-7.2849 l -2.892288,-12.1215 -0.20445,3.9519 0.435563,2.348 -0.02252,6.4636 -0.372718,5.6645 c 0,0 -0.07157,0.9416 -0.470074,1.3809 -0.23586,0.2599 -0.396341,0.5271 -0.740545,0.5959 -0.344204,0.069 -0.769459,-0.026 -1.032612,0.2065 -0.217599,0.1921 -0.267309,0.536 -0.275362,0.8261 -0.01451,0.5231 0.413044,1.5145 0.413044,1.5145 l -1.307973,0.5507 -2.065225,0.069 -3.741325,-0.2066 2.260334,-2.4208 1.721019,-2.2261 c 0,0 1.866107,-2.6725 1.741771,-5.0384 -0.03739,-0.7115 0.18975,-2.4633 -0.02398,-3.143 -0.322299,-1.0248 -0.01168,-1.6894 -0.149947,-2.7549 -0.06524,-0.5027 -0.697321,-2.7513 -0.761523,-3.2542 -0.240854,-1.8863 -2.263019,-3.2943 -2.263019,-3.2943 l -1.654192,-4.1287 -2.902179,-0.655 -2.645974,1.4252 -6.195669,2.0652 -7.546607,0.097 -4.550996,-0.7627 -0.342131,7.5691 0.137681,3.029 -0.137681,0.826 0.96377,3.9928 0.378624,3.7518 -1.204714,1.3424 -0.03441,1.0671 0.456069,1.2993 -1.125116,1.0649 -1.813524,0.032 -0.880293,-0.2716 -0.553634,-1.8786 1.115962,-1.884 1.182777,-1.0127 -0.762141,-3.3842 -0.201629,-4.5325 0,2.3406 0.688407,5.6449 -1.411236,1.4113 -0.653987,1.067 0.653987,1.8243 -0.980982,1.1875 -2.288955,0.1549 -4.785898,-0.029 1.744027,-2.9318 1.675185,-1.8611 0.814858,-1.9193 0.501294,-3.6702 -0.607666,-6.3918 -0.178207,-3.9264 -0.667962,-3.6 -1.937676,-3.6202 -1.514497,-1.3768 -0.96377,-2.6848 0,-3.51088 -7.15944,-11.49641 -1.307976,-1.44566 c 0,0 -1.212849,-0.5717 -1.8587,-0.55072 -0.464395,0.0151 -0.901186,0.25735 -1.307975,0.48188 -0.329498,0.18187 -0.555541,0.52574 -0.89493,0.68841 -0.646809,0.31001 -1.413634,0.27193 -2.091039,0.5077 -1.327257,0.46196 -2.891634,0.71721 -3.829267,1.76405 -0.338899,0.37836 -0.08828,1.12458 -0.481886,1.44565 -0.447728,0.36521 -1.143669,0.22905 -1.721019,0.20653 -0.467671,-0.0182 -0.994243,-0.006 -1.376816,-0.27536 -0.656233,-0.46247 -1.1209716,-1.27116 -1.2391336,-2.06523 -0.111403,-0.74866 0.226162,-1.51912 0.5507256,-2.2029 1.842014,-3.8807 7.710167,-10.32612 7.710167,-10.32612 l -0.826089,-4.68117 3.57972,4.13045 c 0,0 0.991305,-0.42212 1.514496,-0.41305 1.393333,0.0241 2.666218,0.81225 3.992766,1.23913 1.795976,0.57795 3.647773,1.01854 5.36958,1.78986 1.810454,0.81104 3.49748,1.88249 5.163058,2.96016 1.737988,1.12452 3.136637,2.80132 5.025376,3.64856 1.371649,0.61529 2.963997,0.53812 4.405809,0.96377 1.128214,0.33307 2.246994,0.72359 3.304358,1.23913 0.870204,0.4243 1.595674,1.11662 2.478267,1.5145 0.569072,0.25654 1.176277,0.43596 1.78986,0.55073 1.266342,0.23685 3.855084,0.27536 3.855084,0.27536 0,0 3.949423,-0.53301 5.920306,-0.82609 1.74637,-0.25969 3.471737,-0.68798 5.231898,-0.82609 1.006571,-0.079 2.026894,-0.12336 3.028995,0 1.126844,0.13872 2.21565,0.504 3.304356,0.82609 1.62831,0.48172 3.26336,0.97109 4.818855,1.65218 1.194457,0.52301 3.442039,1.8587 3.442039,1.8587 l 3.304357,2.47827 2.960152,8.32977 0.688409,8.3985 0.275363,8.9493 -10e-7,5.7827 -0.206521,4.9565 -1.307975,-7.1594 -0.82609,-7.2972 -0.550726,-7.7101 -1.996383,-5.0942 -1.858701,-7.71022 -0.35635,13.07502 0.363488,2.8189 c 0,0 1.019366,2.145 1.185674,4.5873 0.04053,0.5952 0.549163,1.6443 0.547914,2.241 -0.0017,0.8437 -1.310432,1.209 -1.076123,2.0195 0.892585,3.0878 3.259322,9.6787 3.259322,9.6787 0,0 -0.498218,0.6542 -0.722827,0.9982 -0.210875,0.3229 -0.557528,0.6135 -0.585146,0.9982 -0.02396,0.3336 0.285462,0.608 0.378623,0.9293 0.126614,0.4366 0.240946,1.3424 0.240946,1.3424 z"
       id="path3007"
       inkscape:connector-curvature="0"
       sodipodi:nodetypes="cccsssccccccssssccccccssssccccccccccccccccccccccccccccccccccccccccccccsssssssssscccssssssssscsssssccccccccccccccssscssscc" />
    <path
       style="fill:none;stroke:#000000;stroke-width:1.09038222px;stroke-linecap:butt;stroke-linejoin:miter;stroke-opacity:1"
       d="m 45.263083,1009.4245 -2.101898,1.6254 -0.413045,10.049"
       id="path3779"
       inkscape:connector-curvature="0"
       sodipodi:nodetypes="ccc" />
    <path
       style="fill:#c8c8c8;fill-opacity:1;stroke:#000000;stroke-width:1px;stroke-linecap:butt;stroke-linejoin:miter;stroke-opacity:1"
       d="m 10.357126,988.96932 6.607142,-6.875 0.625,-2.94643 2.142857,-1.25 c 0,0 1.650209,0.2922 2.410715,0.625 0.907575,0.39717 1.637193,1.12032 2.5,1.60715 1.53019,0.86338 3.242204,1.3903 4.732143,2.32143 1.726593,1.07902 3.784702,1.99768 4.821428,3.75 l 3.654369,9.06862 5.002629,8.62851 c 1.071582,1.8483 7.64664,1.3422 9.733231,1.8011 1.637095,0.3599 7.364652,-1.5135 9.04061,-1.4846 2.058652,0.035 4.536865,-0.5996 6.539522,-1.0778 1.349429,-0.3222 3.883346,0.375 5.228245,0.034 1.739691,-0.4407 4.827061,0.898 6.619834,0.9795 2.513127,0.1141 4.885333,-11.82972 4.885333,-11.82972 l -2.351297,-1.91012 -4.245333,-1.53132 c 0,0 -3.773207,-1.27205 -5.714285,-1.69643 -0.822369,-0.17979 -1.658876,-0.32359 -2.500001,-0.35714 -1.518089,-0.0605 -3.040938,0.0994 -4.549084,0.28318 -2.30655,0.281 -4.537651,1.12374 -6.857823,1.25 -1.540572,0.0838 -3.112669,0.0129 -4.616705,-0.331 -1.60878,-0.36784 -3.054777,-1.25144 -4.601387,-1.82718 -1.358428,-0.50569 -2.704407,-1.06336 -4.107143,-1.42857 -0.99439,-0.2589 -2.053476,-0.23398 -3.035715,-0.53572 -0.904148,-0.27775 -1.610492,-0.8922 -2.399881,-1.41325 -1.31833,-0.87018 -2.348729,-2.0984 -3.671547,-2.96175 -1.060342,-0.69204 -2.337515,-1.41843 -3.482143,-1.95979 -1.359677,-0.64307 -2.61907,-1.05877 -4.017857,-1.61163 -1.900965,-0.75135 -4.109027,-1.83494 -6.145395,-2.01211 -0.834949,-0.0726 -2.247462,0.0784 -2.247462,0.0784 -0.912107,0.42073 0.112368,3.47141 -2.767858,1.21937 l -1.785714,2.41071 -2.946428,3.39286 -2.9464286,4.55357 -0.178571,1.78571 z"
       id="path3801"
       inkscape:connector-curvature="0"
       sodipodi:nodetypes="ccccsssscsssssscccaaaaaasssssssccccccc" />
    <path
       sodipodi:type="arc"
       style="fill:#000000;fill-opacity:1;fill-rule:nonzero;stroke:none"
       id="path3781"
       sodipodi:cx="81.44355"
       sodipodi:cy="28.784245"
       sodipodi:rx="0.37880722"
       sodipodi:ry="0.75761443"
       d="m 81.822357,28.784245 c 0,0.418418 -0.169597,0.757614 -0.378807,0.757614 -0.209209,0 -0.378807,-0.339196 -0.378807,-0.757614 0,-0.418419 0.169598,-0.757615 0.378807,-0.757615 0.20921,0 0.378807,0.339196 0.378807,0.757615 z"
       transform="matrix(-3.3348585,0,0,0.88949783,291.79513,954.74543)" />
    <path
       style="fill:none;stroke:#000000;stroke-width:1px;stroke-linecap:butt;stroke-linejoin:miter;stroke-opacity:1"
       d="m 77.84924,988.78812 -4.367114,14.51618"
       id="path3842"
       inkscape:connector-curvature="0"
       sodipodi:nodetypes="cc" />
    <path
       style="fill:none;stroke:#000000;stroke-width:1px;stroke-linecap:butt;stroke-linejoin:miter;stroke-opacity:1"
       d="m 68.716716,986.89409 -2.069979,16.15761"
       id="path3844"
       inkscape:connector-curvature="0"
       sodipodi:nodetypes="cc" />
    <path
       style="fill:none;stroke:#000000;stroke-width:1px;stroke-linecap:butt;stroke-linejoin:miter;stroke-opacity:1"
       d="m 60.178554,988.70147 -0.376179,15.55693"
       id="path3846"
       inkscape:connector-curvature="0"
       sodipodi:nodetypes="cc" />
    <path
       style="fill:none;stroke:#000000;stroke-width:1px;stroke-linecap:butt;stroke-linejoin:miter;stroke-opacity:1"
       d="m 54.285697,988.25504 -2.86721,17.13346"
       id="path3848"
       inkscape:connector-curvature="0"
       sodipodi:nodetypes="cc" />
    <path
       style="fill:none;stroke:#000000;stroke-width:1px;stroke-linecap:butt;stroke-linejoin:miter;stroke-opacity:1"
       d="m 49.107126,986.20147 -6.675854,17.37063"
       id="path3850"
       inkscape:connector-curvature="0"
       sodipodi:nodetypes="cc" />
    <path
       style="fill:none;stroke:#000000;stroke-width:1px;stroke-linecap:butt;stroke-linejoin:miter;stroke-opacity:1"
       d="m 42.678554,983.96932 -4.8188,10.93728"
       id="path3852"
       inkscape:connector-curvature="0"
       sodipodi:nodetypes="cc" />
    <path
       style="fill:none;stroke:#000000;stroke-width:1px;stroke-linecap:butt;stroke-linejoin:miter;stroke-opacity:1"
       d="m 37.946411,981.29075 -3.140319,6.03182"
       id="path3854"
       inkscape:connector-curvature="0"
       sodipodi:nodetypes="cc" />
    <path
       style="fill:none;stroke:#000000;stroke-width:1px;stroke-linecap:butt;stroke-linejoin:miter;stroke-opacity:1"
       d="m 33.660697,978.70147 -3.035714,4.46428"
       id="path3856"
       inkscape:connector-curvature="0"
       sodipodi:nodetypes="cc" />
    <path
       style="fill:none;stroke:#000000;stroke-width:1px;stroke-linecap:butt;stroke-linejoin:miter;stroke-opacity:1"
       d="m 28.506418,976.57393 -2.105873,4.3227"
       id="path3858"
       inkscape:connector-curvature="0"
       sodipodi:nodetypes="cc" />
    <path
       style="fill:none;stroke:#000000;stroke-width:1px;stroke-linecap:butt;stroke-linejoin:miter;stroke-opacity:1"
       d="m 23.749983,974.77289 -1.250001,3.75"
       id="path3860"
       inkscape:connector-curvature="0"
       sodipodi:nodetypes="cc" />
    <path
       style="fill:none;stroke:#000000;stroke-width:1px;stroke-linecap:butt;stroke-linejoin:miter;stroke-opacity:1"
       d="M 19.910697,977.89789 C 19.553554,977.63004 19.483304,976.454 19.483304,976.454"
       id="path3862"
       inkscape:connector-curvature="0"
       sodipodi:nodetypes="cc" />
    <path
       style="fill:none;stroke:#000000;stroke-width:1px;stroke-linecap:butt;stroke-linejoin:miter;stroke-opacity:1"
       d="M 16.874983,982.09432 14.64284,979.86218"
       id="path3864"
       inkscape:connector-curvature="0" />
    <path
       style="fill:none;stroke:#000000;stroke-width:1px;stroke-linecap:butt;stroke-linejoin:miter;stroke-opacity:1"
       d="m 13.749983,985.13004 -2.053572,-1.69643"
       id="path3866"
       inkscape:connector-curvature="0" />
  </g>
</svg>
