<?xml version="1.0" encoding="UTF-8" standalone="no"?>
<!-- Created with Inkscape (http://www.inkscape.org/) -->

<svg
   xmlns:dc="http://purl.org/dc/elements/1.1/"
   xmlns:cc="http://creativecommons.org/ns#"
   xmlns:rdf="http://www.w3.org/1999/02/22-rdf-syntax-ns#"
   xmlns:svg="http://www.w3.org/2000/svg"
   xmlns="http://www.w3.org/2000/svg"
   xmlns:sodipodi="http://sodipodi.sourceforge.net/DTD/sodipodi-0.dtd"
   xmlns:inkscape="http://www.inkscape.org/namespaces/inkscape"
   width="100"
   height="100"
   id="svg2"
   version="1.1"
   inkscape:version="0.48.2 r9819"
   sodipodi:docname="crown_alabaster.svg">
  <defs
     id="defs4" />
  <sodipodi:namedview
     id="base"
     pagecolor="#ffffff"
     bordercolor="#666666"
     borderopacity="1.0"
     inkscape:pageopacity="0.0"
     inkscape:pageshadow="2"
     inkscape:zoom="5.1290937"
     inkscape:cx="-1.0524566"
     inkscape:cy="47.066151"
     inkscape:document-units="px"
     inkscape:current-layer="layer1"
     showgrid="false"
     inkscape:window-width="1327"
     inkscape:window-height="643"
     inkscape:window-x="14"
     inkscape:window-y="53"
     inkscape:window-maximized="0" />
  <metadata
     id="metadata7">
    <rdf:RDF>
      <cc:Work
         rdf:about="">
        <dc:format>image/svg+xml</dc:format>
        <dc:type
           rdf:resource="http://purl.org/dc/dcmitype/StillImage" />
        <dc:title />
      </cc:Work>
    </rdf:RDF>
  </metadata>
  <g
     inkscape:label="Layer 1"
     inkscape:groupmode="layer"
     id="layer1"
     transform="translate(0,-952.36218)">
    <path
       style="fill:#f3efdf;fill-opacity:1;stroke:#000000;stroke-width:1.19599998;stroke-linecap:butt;stroke-linejoin:miter;stroke-miterlimit:4;stroke-opacity:1;stroke-dasharray:none"
       d="m 20.069994,1027.3873 -11.9720013,-47.7909 15.5636013,23.8954 2.3944,-29.86926 13.169201,26.28498 10.774801,-28.67452 10.774801,28.67452 13.169201,-26.28498 2.3944,29.86926 15.563602,-23.8954 -11.972001,47.7909 z"
       id="path3098"
       inkscape:connector-curvature="0"
       sodipodi:nodetypes="cccccccccccc" />
    <path
       sodipodi:type="arc"
       style="fill:#000000;fill-opacity:1;fill-rule:nonzero;stroke:#000000;stroke-width:1.33796692;stroke-miterlimit:4;stroke-opacity:1;stroke-dasharray:none"
       id="path2993-9-2"
       sodipodi:cx="52.906738"
       sodipodi:cy="59.341358"
       sodipodi:rx="23.359777"
       sodipodi:ry="1.7665215"
       d="m 76.266516,59.341358 c 0,0.975623 -10.458529,1.766522 -23.359778,1.766522 -12.901249,0 -23.359777,-0.790899 -23.359777,-1.766522 0,-0.975623 10.458528,-1.766521 23.359777,-1.766521 12.901249,0 23.359778,0.790898 23.359778,1.766521 z"
       transform="matrix(1.2885564,0,0,1.8245878,-18.173323,920.83972)" />
    <path
       sodipodi:type="arc"
       style="fill:#000000;fill-opacity:1;fill-rule:nonzero;stroke:#000000;stroke-width:1.33804691;stroke-miterlimit:4;stroke-opacity:1;stroke-dasharray:none"
       id="path2993-9-4"
       sodipodi:cx="52.906738"
       sodipodi:cy="59.341358"
       sodipodi:rx="23.359777"
       sodipodi:ry="1.7665215"
       d="m 76.266516,59.341358 c 0,0.975623 -10.458529,1.766522 -23.359778,1.766522 -12.901249,0 -23.359777,-0.790899 -23.359777,-1.766522 0,-0.975623 10.458528,-1.766521 23.359777,-1.766521 12.901249,0 23.359778,0.790898 23.359778,1.766521 z"
       transform="matrix(1.490722,0,0,1.7871703,-28.869267,906.12547)" />
    <path
       sodipodi:type="arc"
       style="fill:#f3efdf;fill-opacity:1;fill-rule:nonzero;stroke:none"
       id="path2993-9"
       sodipodi:cx="52.906738"
       sodipodi:cy="59.341358"
       sodipodi:rx="23.359777"
       sodipodi:ry="1.7665215"
       d="m 76.266516,59.341358 c 0,0.975623 -10.458529,1.766522 -23.359778,1.766522 -12.901249,0 -23.359777,-0.790899 -23.359777,-1.766522 0,-0.975623 10.458528,-1.766521 23.359777,-1.766521 12.901249,0 23.359778,0.790898 23.359778,1.766521 z"
       transform="matrix(1.4350138,0,0,1.7871703,-25.921903,904.22937)" />
    <path
       sodipodi:type="arc"
       style="fill:#f3efdf;fill-opacity:1;fill-rule:nonzero;stroke:none"
       id="path2993-9-2-5"
       sodipodi:cx="52.906738"
       sodipodi:cy="59.341358"
       sodipodi:rx="23.359777"
       sodipodi:ry="1.7665215"
       d="m 76.266516,59.341358 c 0,0.975623 -10.458529,1.766522 -23.359778,1.766522 -12.901249,0 -23.359777,-0.790899 -23.359777,-1.766522 0,-0.975623 10.458528,-1.766521 23.359777,-1.766521 12.901249,0 23.359778,0.790898 23.359778,1.766521 z"
       transform="matrix(1.2674343,0,0,1.8345221,-17.055819,918.27045)" />
    <path
       style="fill:none;stroke:#c83737;stroke-width:1.19598544000000007px;stroke-linecap:butt;stroke-linejoin:miter;stroke-opacity:1"
       d="m 23.661594,1026.1925 4.7888,-4.7791 7.183201,5.9739 8.380401,-4.7791 5.986,5.9739 5.986001,-5.9739 8.3804,4.7791 7.183201,-5.9739 4.7888,4.7791"
       id="path5111"
       inkscape:connector-curvature="0"
       sodipodi:nodetypes="ccccccccc" />
    <path
       style="fill:none;stroke:#c83737;stroke-width:1.19598544000000007px;stroke-linecap:butt;stroke-linejoin:miter;stroke-opacity:1"
       d="m 23.661594,1022.6082 4.7888,-4.7791 7.183201,5.9739 8.380401,-4.7791 5.986,5.9739 5.986001,-5.9739 8.380397,4.7791 7.1832,-5.9739 4.788801,4.7791"
       id="path5111-7"
       inkscape:connector-curvature="0"
       sodipodi:nodetypes="ccccccccc" />
    <path
       sodipodi:type="star"
       style="fill:#c83737;fill-opacity:1;fill-rule:nonzero;stroke:#000000;stroke-width:0;stroke-miterlimit:4;stroke-opacity:1;stroke-dasharray:none;stroke-dashoffset:0"
       id="path7843"
       sodipodi:sides="8"
       sodipodi:cx="5.7902012"
       sodipodi:cy="15.352772"
       sodipodi:r1="4.7055168"
       sodipodi:r2="3.5291376"
       sodipodi:arg1="0"
       sodipodi:arg2="0.39269908"
       inkscape:flatsided="false"
       inkscape:rounded="7.5"
       inkscape:randomized="0"
       d="m 10.495718,15.352772 c 0,14.834166 4.231771,-12.3544406 -1.4450188,1.350542 -5.6767898,13.704983 10.5561448,-8.5125792 0.066805,1.976761 -10.4893397,10.489339 11.728222,-5.743595 -1.9767603,-0.0668 -13.7049829,5.67679 13.4836243,1.445019 -1.3505425,1.445019 -14.8341665,0 12.3544408,4.231771 -1.3505425,-1.445019 -13.7049829,-5.67679 8.5125793,10.556144 -1.9767604,0.0668 C -8.0264414,8.1907349 8.2064929,30.408297 2.5297032,16.703314 -3.1470866,2.9983314 1.0846844,30.186938 1.0846844,15.352772 c -1e-7,-14.83416673 -4.231771,12.35444 1.4450188,-1.350543 5.6767898,-13.70498261 -10.5561446,8.51258 -0.066805,-1.97676 10.4893397,-10.4893398 -11.7282224,5.743595 1.9767604,0.06681 13.7049833,-5.67679 -13.4836241,-1.445019 1.3505425,-1.445019 14.8341668,0 -12.3544403,-4.231771 1.3505425,1.445019 13.7049833,5.67679 -8.5125795,-10.5561449 1.9767603,-0.06681 10.48934,10.48934 -5.7435946,-11.72822255 -0.066805,1.97676 5.6767898,13.704983 1.4450188,-13.48362382 1.4450188,1.350543 z"
       transform="matrix(0.71992023,0,0,0.71992023,45.831517,995.30941)" />
    <path
       sodipodi:type="star"
       style="fill:#c83737;fill-opacity:1;fill-rule:nonzero;stroke:#000000;stroke-width:0;stroke-miterlimit:4;stroke-opacity:1;stroke-dasharray:none;stroke-dashoffset:0"
       id="path7845"
       sodipodi:sides="6"
       sodipodi:cx="12.407574"
       sodipodi:cy="23.07304"
       sodipodi:r1="2.067929"
       sodipodi:r2="1.0339645"
       sodipodi:arg1="0"
       sodipodi:arg2="0.52359878"
       inkscape:flatsided="false"
       inkscape:rounded="4"
       inkscape:randomized="0"
       d="m 14.475503,23.07304 c 0,5.125625 1.390323,-3.92194 -1.17249,0.516982 -2.562812,4.438922 4.577447,-1.288916 0.138525,1.273897 -4.4389217,2.562813 4.091661,-0.756914 -1.033964,-0.756914 -5.1256257,0 3.404957,3.319727 -1.033965,0.756914 -4.4389217,-2.562813 2.701338,3.165025 0.138525,-1.273897 -2.5628126,-4.438922 -1.172489,4.608643 -1.172489,-0.516982 0,-5.125625 -1.3903236,3.92194 1.172489,-0.516982 2.562813,-4.438922 -4.5774467,1.288916 -0.138525,-1.273897 4.438922,-2.562813 -4.0916608,0.756914 1.033965,0.756914 5.125625,0 -3.4049576,-3.319727 1.033964,-0.756914 4.438922,2.562813 -2.701337,-3.165025 -0.138525,1.273897 2.562813,4.438922 1.17249,-4.608643 1.17249,0.516982 z"
       transform="matrix(0.99023823,0,0,0.99023823,20.213546,983.77924)" />
    <path
       transform="matrix(0.99023823,0,0,0.99023823,55.213546,983.77924)"
       d="m 14.475503,23.07304 c 0,5.125625 1.390323,-3.92194 -1.17249,0.516982 -2.562812,4.438922 4.577447,-1.288916 0.138525,1.273897 -4.4389217,2.562813 4.091661,-0.756914 -1.033964,-0.756914 -5.1256257,0 3.404957,3.319727 -1.033965,0.756914 -4.4389217,-2.562813 2.701338,3.165025 0.138525,-1.273897 -2.5628126,-4.438922 -1.172489,4.608643 -1.172489,-0.516982 0,-5.125625 -1.3903236,3.92194 1.172489,-0.516982 2.562813,-4.438922 -4.5774467,1.288916 -0.138525,-1.273897 4.438922,-2.562813 -4.0916608,0.756914 1.033965,0.756914 5.125625,0 -3.4049576,-3.319727 1.033964,-0.756914 4.438922,2.562813 -2.701337,-3.165025 -0.138525,1.273897 2.562813,4.438922 1.17249,-4.608643 1.17249,0.516982 z"
       inkscape:randomized="0"
       inkscape:rounded="4"
       inkscape:flatsided="false"
       sodipodi:arg2="0.52359878"
       sodipodi:arg1="0"
       sodipodi:r2="1.0339645"
       sodipodi:r1="2.067929"
       sodipodi:cy="23.07304"
       sodipodi:cx="12.407574"
       sodipodi:sides="6"
       id="path7847"
       style="fill:#c83737;fill-opacity:1;fill-rule:nonzero;stroke:#000000;stroke-width:0;stroke-miterlimit:4;stroke-opacity:1;stroke-dasharray:none;stroke-dashoffset:0"
       sodipodi:type="star"
       inkscape:transform-center-x="30.443104"
       inkscape:transform-center-y="-1.7747068" />
  </g>
</svg>
