<?xml version="1.0" encoding="UTF-8" standalone="no"?>
<!-- Created with Inkscape (http://www.inkscape.org/) -->

<svg
   xmlns:dc="http://purl.org/dc/elements/1.1/"
   xmlns:cc="http://creativecommons.org/ns#"
   xmlns:rdf="http://www.w3.org/1999/02/22-rdf-syntax-ns#"
   xmlns:svg="http://www.w3.org/2000/svg"
   xmlns="http://www.w3.org/2000/svg"
   xmlns:sodipodi="http://sodipodi.sourceforge.net/DTD/sodipodi-0.dtd"
   xmlns:inkscape="http://www.inkscape.org/namespaces/inkscape"
   width="100"
   height="100"
   id="svg2"
   version="1.1"
   inkscape:version="0.48.2 r9819"
   sodipodi:docname="elephant.svg">
  <defs
     id="defs4">
    <clipPath
       clipPathUnits="userSpaceOnUse"
       id="clipPath3019">
      <rect
         style="fill:#353839;fill-opacity:1;fill-rule:nonzero;stroke:#000000;stroke-width:1;stroke-miterlimit:4;stroke-opacity:1;stroke-dasharray:none"
         id="rect3021"
         width="820"
         height="562.85712"
         x="-351.42856"
         y="1055.2194" />
    </clipPath>
    <clipPath
       clipPathUnits="userSpaceOnUse"
       id="clipPath3816">
      <rect
         clip-path="none"
         y="51.260139"
         x="78.9813"
         height="35.355339"
         width="8.7125654"
         id="rect3818"
         style="fill:#000000;fill-opacity:1;fill-rule:nonzero;stroke:#ff0000;stroke-width:0.1;stroke-miterlimit:4;stroke-opacity:1;stroke-dasharray:none" />
    </clipPath>
  </defs>
  <sodipodi:namedview
     id="base"
     pagecolor="#ffffff"
     bordercolor="#666666"
     borderopacity="1.0"
     inkscape:pageopacity="0.0"
     inkscape:pageshadow="2"
     inkscape:zoom="5.6"
     inkscape:cx="33.117849"
     inkscape:cy="74.21032"
     inkscape:document-units="px"
     inkscape:current-layer="layer1"
     showgrid="false"
     inkscape:window-width="1395"
     inkscape:window-height="804"
     inkscape:window-x="275"
     inkscape:window-y="128"
     inkscape:window-maximized="0" />
  <metadata
     id="metadata7">
    <rdf:RDF>
      <cc:Work
         rdf:about="">
        <dc:format>image/svg+xml</dc:format>
        <dc:type
           rdf:resource="http://purl.org/dc/dcmitype/StillImage" />
        <dc:title></dc:title>
      </cc:Work>
    </rdf:RDF>
  </metadata>
  <g
     inkscape:label="Layer 1"
     inkscape:groupmode="layer"
     id="layer1"
     transform="translate(0,-952.36218)">
    <path
       style="fill:none;stroke:#000000;stroke-width:1.00889802;stroke-linecap:butt;stroke-linejoin:miter;stroke-miterlimit:4;stroke-opacity:1;stroke-dasharray:none"
       d="m 22.288458,999.96864 c 0,0 -1.792623,0.88166 -2.714947,1.26326 -0.904403,0.3741 -1.830513,0.695 -2.759172,1.0042 -0.669662,0.2228 -1.332367,0.4863 -2.026772,0.6126 -0.443147,0.081 -1.043858,0.1833 -1.493206,0.2138 -0.727965,0.049 -1.309162,0.012 -2.038605,0.029 -0.403868,0.01 -0.807683,-0.019 -1.211535,-0.029 -0.5098665,-0.012 -0.856951,-0.096 -1.3671318,-0.104 -0.2500383,-0.01 -0.7092566,-0.1021 -0.9124991,0.044 -0.1293336,0.093 -0.253194,0.3095 -0.2598196,0.4686 -0.00741,0.1778 0.1143844,0.3746 0.2341925,0.5064 0.2946809,0.3236 1.2461653,0.4138 1.2461653,0.4138 0,0 1.2518967,0.2979 1.8909417,0.3353 0.791415,0.045 1.389249,0.07 2.180824,0.027 0.85466,-0.045 1.911848,-0.1614 2.757926,-0.2906 0.852347,-0.1303 1.688064,-0.3707 2.503329,-0.6515 0.897999,-0.3091 1.759377,-0.719 2.614653,-1.132 0.4986,-0.2407 1.464798,-0.7832 1.464798,-0.7832 z"
       id="path3826"
       inkscape:connector-curvature="0"
       sodipodi:nodetypes="csssssssssscssssscc" />
    <path
       style="fill:#f3efdf;fill-opacity:1;stroke:#000000;stroke-width:1.00889801999999995;stroke-linecap:butt;stroke-linejoin:miter;stroke-miterlimit:4;stroke-opacity:1;stroke-dasharray:none"
       d="m 53.038438,1006.1772 -0.04504,5.77 -0.613781,5.0055 -0.585521,3.8824 c 0,0 -0.230418,1.8896 -0.17177,2.8342 0.05671,0.9135 0.477982,1.3843 0.414546,2.2973 -0.04493,0.6467 -0.417846,1.607 -0.528471,2.2457 -0.126081,0.7279 -0.04372,2.2159 -0.04372,2.2159 l -0.211071,2.2325 -0.810059,1.2668 -1.125339,0.3211 -1.715937,-0.1281 -2.031216,0.097 -1.910889,-0.2999 -1.820809,0.2858 -2.411406,-0.4801 c 0,0 -0.125199,-0.4344 -0.208222,-0.9645 -0.08302,-0.53 -0.07883,-1.1558 0.08988,-1.5382 0.219474,-0.4976 0.655877,-0.7842 1.160212,-1.0578 0.504335,-0.2737 1.031561,-0.5345 1.342601,-0.9805 0.460835,-0.6609 0.764355,-2.2931 0.764355,-2.2931 l -1.168388,-19.6997 -2.040933,-4.2952 -1.842666,-1.409 -0.46453,-0.7463 -0.280838,-1.62077 -0.280838,-1.48562 -1.091558,0.27091 -1.31676,0.85645 -3.009731,2.95053 -1.544167,-0.045 -1.273926,0.765 -0.243608,2.9634 -0.108488,3.3688 -0.243608,3.5039 -0.468809,3.2786 -0.749231,5.4579 -0.884353,4.6472 -0.02859,1.4944 c 0,0 0.08273,0.7461 0.37445,0.848 0.341067,0.1191 0.665431,-0.7124 0.959972,-0.5031 0.598517,0.4251 -0.340968,1.4446 -0.323012,2.1786 0.01286,0.5259 0.06587,1.0807 0.30755,1.5479 0.188795,0.3651 0.992785,0.5104 0.848034,0.895 -0.107123,0.2846 -0.606858,0.1229 -0.90853,0.084 -0.945706,-0.1213 -1.923138,-0.4067 -2.689374,-0.9741 -0.511892,-0.3791 -0.787141,-1.0029 -1.146533,-1.5288 -0.408893,-0.5983 -0.935196,-1.154 -1.146533,-1.8472 -0.34077,-1.1177 -0.179808,-2.3359 -0.127393,-3.5033 0.136319,-3.036 1.146534,-9.0449 1.146534,-9.0449 l -0.382179,-2.1656 0,-13.24883 c 0,0 0.159495,-5.62206 0.509571,-8.40793 0.39354,-3.13175 0.677337,-6.34346 1.783497,-9.29966 0.740204,-1.97819 2.02585,-3.71211 3.184815,-5.47788 1.099836,-1.67569 2.01252,-3.57555 3.566993,-4.84092 1.340965,-1.09158 3.006194,-1.8923 4.713527,-2.16567 1.856798,-0.29731 3.78969,0.14732 5.605274,0.63696 1.835839,0.4951 5.223097,2.29306 5.223097,2.29306 l 3.566994,2.16568 4.458741,0 c 0,0 2.466022,0.0873 3.694386,0 2.096583,-0.149 4.15194,-0.67148 6.242237,-0.89174 1.862451,-0.19627 3.732664,-0.40597 5.605275,-0.38218 1.364703,0.0173 2.764362,0.007 4.076564,0.38218 1.734559,0.49607 3.354783,1.39761 4.840919,2.42045 1.7083,1.17574 3.197191,2.66399 4.586134,4.20396 1.240027,1.37486 2.401726,2.84662 3.312208,4.45873 0.880287,1.55866 1.580135,3.23788 2.038282,4.96832 0.67942,2.56618 1.019141,7.89836 1.019141,7.89836 l 1.01914,7.13391 c 0,0 -0.08693,4.5531 -0.318482,6.8155 -0.04091,0.3998 0.112729,0.9251 -0.188825,1.1907 -0.159974,0.1409 -0.473119,0.1532 -0.639226,0.019 -1.615912,-1.2998 -1.682248,-5.9362 -1.682248,-5.9362 0,0 -0.273448,-2.1475 -0.453841,-3.1879 -0.09702,-0.5594 0.07326,-1.1473 -0.04372,-1.703 -0.06763,-0.3212 -0.05475,-0.8338 -0.373787,-0.9111 -0.197355,-0.048 -0.463867,0.3949 -0.463867,0.3949 l -3.224779,6.375 -1.273926,4.8409 -1.273926,5.86 -0.61378,5.4856 0.104873,7.463 -0.750889,2.0131 -2.976945,0.6607 -2.283465,-0.064 -1.250743,-0.3977 -1.656104,-0.1274 -1.867175,0 -2.046009,-0.049 -0.629236,-0.4993 c 0,0 -0.22363,-1.7426 0.254784,-2.3818 0.583276,-0.7795 1.99602,-0.443 2.698429,-1.117 0.9637,-0.9247 1.683814,-3.6358 1.683814,-3.6358 l 0.849908,-3.7274 0.358996,-4.7804 -0.675601,-4.1203 -1.303512,-2.6635 -0.61378,-1.2147 -2.532396,-0.015 -5.095705,-1.274 -3.821778,-1.2738 -2.787183,-1.0192 -1.559621,-0.3603 z"
       id="path3036"
       inkscape:connector-curvature="0"
       sodipodi:nodetypes="ccccssscccccccccsssscccccccccccccccccccsssssssssscccsssssscccssssssssccssscsssccccccccccccccsscccccccccccc"
       clip-path="none" />
    <path
       style="fill:#f3efdf;stroke:#000000;stroke-width:1.00889801999999995;stroke-linecap:butt;stroke-linejoin:miter;stroke-miterlimit:4;stroke-opacity:1;stroke-dasharray:none;fill-opacity:1"
       d="m 86.017668,1006.5703 -0.640164,2.9641 -0.546882,2.2821 -0.337138,2.3941 -0.378982,2.8478 -0.262513,3.8436 0.127392,4.2039 0,3.4396 -0.254785,2.102 -0.253458,1.454 -1.098294,0.5437 -0.68653,0.1679 -0.700659,-0.064 0.06369,-1.0669 -0.105844,-7.4915 0.563002,-5.2022 0.96836,-4.5941 1.598925,-6.283 1.756563,-3.6033 0.833242,-1.4638 0.63056,-1.3287 z"
       id="path3806"
       inkscape:connector-curvature="0"
       sodipodi:nodetypes="cccccccccccccccccccccc" />
    <path
       style="fill:#f3efdf;stroke:#000000;stroke-width:1.00889801999999995;stroke-linecap:butt;stroke-linejoin:miter;stroke-miterlimit:4;stroke-opacity:1;stroke-dasharray:none;fill-opacity:1"
       d="m 39.200884,1031.2208 -0.0078,1.1979 c 0,0 -0.896478,-0.1905 -1.343087,-0.2931 -0.406268,-0.093 -0.954588,0.032 -1.215694,-0.2929 -0.4803,-0.5977 -0.04504,-2.2999 -0.04504,-2.2999 l 0.509571,-1.2102 c 0,0 0.707467,-0.5112 1.082831,-0.7326 0.564366,-0.3328 1.376363,-0.3546 1.751649,-0.8917 0.508353,-0.7274 0.283168,-1.7566 0.318482,-2.6434 0.05242,-1.3164 -0.159243,-3.9492 -0.159243,-3.9492 -0.04374,-1.0845 0.0013,-1.8441 0.09554,-2.8663 l -0.15924,-3.9811 -0.03185,-1.7197 -0.0637,-1.9109 5e-6,-1.879 -0.573267,-2.6435 0.03185,-2.2612 1.974586,4.2359 1.114685,18.0419 c 0,0 0.172603,1.1614 0.09554,1.7358 -0.111611,0.8317 -0.308817,1.7053 -0.796204,2.3885 -0.31443,0.4408 -0.83196,0.6797 -1.398275,1.0631 -0.566315,0.3835 -1.341915,0.4408 -1.181414,0.9116 4e-6,0 3.7e-5,0 3.7e-5,0 z"
       id="path3820"
       inkscape:connector-curvature="0"
       sodipodi:nodetypes="ccssccsssssccccccccssssc" />
    <path
       style="fill:none;stroke:#000000;stroke-width:1.00889802;stroke-linecap:butt;stroke-linejoin:miter;stroke-miterlimit:4;stroke-opacity:1;stroke-dasharray:none"
       d="m 43.569091,975.45877 c 0,0 1.700228,-0.51022 2.577881,-0.54694 1.06189,-0.0444 2.135092,0.13028 3.163403,0.3989 0.959988,0.25078 1.914214,0.59761 2.758044,1.11955 0.769788,0.47614 1.543481,1.03664 2.037401,1.79514 0.461697,0.70902 0.72271,1.57539 0.764355,2.42046 0.04183,0.84887 -0.216708,1.70307 -0.525026,2.49508 -0.419287,1.07708 -1.122849,2.02383 -1.768041,2.9828 -0.803587,1.19439 -1.658265,2.3609 -2.611549,3.43961 -0.8376,0.94779 -1.769934,1.81052 -2.717084,2.64885 -0.752696,0.66622 -1.393169,1.58491 -2.351687,1.88763 -0.436926,0.13799 -1.371734,-0.0887 -1.371734,-0.0887"
       id="path3830"
       inkscape:connector-curvature="0"
       sodipodi:nodetypes="cssssssssssc" />
    <path
       style="fill:none;stroke:#000000;stroke-width:1.00889802;stroke-linecap:butt;stroke-linejoin:miter;stroke-miterlimit:4;stroke-opacity:1;stroke-dasharray:none"
       d="m 37.457297,1001.1755 1.756563,-1.036 2.747446,-3.10775 1.936723,-4.00856 1.486323,-3.37801"
       id="path3840"
       inkscape:connector-curvature="0" />
    <path
       sodipodi:type="arc"
       style="fill:#ffffff;fill-opacity:1;stroke:#000000;stroke-width:1;stroke-miterlimit:4;stroke-opacity:1;stroke-dasharray:none"
       id="path3842"
       sodipodi:cx="33.125"
       sodipodi:cy="33.660713"
       sodipodi:rx="2.0535715"
       sodipodi:ry="1.1607143"
       d="m 35.178571,33.660713 a 2.0535715,1.1607143 0 1 1 -4.107142,0 2.0535715,1.1607143 0 1 1 4.107142,0 z"
       transform="matrix(1.008898,0,0,1.008898,0.7045835,949.3343)" />
    <path
       style="fill:#ffffff;fill-opacity:1;stroke:#000000;stroke-width:1.00889802;stroke-linecap:butt;stroke-linejoin:miter;stroke-miterlimit:4;stroke-opacity:1;stroke-dasharray:none"
       d="m 28.084941,1001.2115 c -0.318482,0.2548 -2.338619,1.7526 -3.630689,2.4204 -1.474648,0.7624 -2.473601,1.178 -4.019269,1.7836 -0.532302,0.2085 -1.671769,0.4853 -2.22297,0.6369 -0.787536,0.2168 -1.606146,0.3183 -2.420459,0.3822 -0.867849,0.068 -1.741927,0.039 -2.611549,0 -0.9371,-0.042 -1.867469,-0.1811 -2.802637,-0.2548 -0.6364043,-0.05 -1.356985,-0.4447 -1.9108888,-0.1274 -0.1235822,0.071 -0.1965548,0.2399 -0.1910889,0.3822 0.0095,0.2474 0.2005032,0.4687 0.3821778,0.637 0.209007,0.1935 0.5024968,0.2701 0.7643558,0.3822 0.5186008,0.222 1.0416211,0.4511 1.5924071,0.5732 0.915841,0.203 1.864987,0.2269 2.802638,0.2548 1.358918,0.04 2.729991,0.06 4.076563,-0.1274 1.213922,-0.1688 2.399053,-0.5203 3.566994,-0.8917 1.563085,-0.4972 3.146565,-0.9974 4.586133,-1.7836 1.267284,-0.692 2.32668,-1.7109 3.503297,-2.5478 0.484745,-0.3448 1.465015,-1.0191 1.465015,-1.0191 l -0.127392,-0.637 -1.465016,0 z"
       id="path3822"
       inkscape:connector-curvature="0"
       sodipodi:nodetypes="csssssssssssssssscccc" />
  </g>
</svg>
