<?xml version="1.0" encoding="UTF-8" standalone="no"?>
<!-- Created with Inkscape (http://www.inkscape.org/) -->

<svg
   xmlns:dc="http://purl.org/dc/elements/1.1/"
   xmlns:cc="http://creativecommons.org/ns#"
   xmlns:rdf="http://www.w3.org/1999/02/22-rdf-syntax-ns#"
   xmlns:svg="http://www.w3.org/2000/svg"
   xmlns="http://www.w3.org/2000/svg"
   xmlns:sodipodi="http://sodipodi.sourceforge.net/DTD/sodipodi-0.dtd"
   xmlns:inkscape="http://www.inkscape.org/namespaces/inkscape"
   width="100"
   height="100"
   id="svg2"
   version="1.1"
   inkscape:version="0.48.2 r9819"
   sodipodi:docname="light_horse.svg">
  <defs
     id="defs4" />
  <sodipodi:namedview
     id="base"
     pagecolor="#ffffff"
     bordercolor="#666666"
     borderopacity="1.0"
     inkscape:pageopacity="0.0"
     inkscape:pageshadow="2"
     inkscape:zoom="7.919596"
     inkscape:cx="22.605065"
     inkscape:cy="85.329739"
     inkscape:document-units="px"
     inkscape:current-layer="layer1"
     showgrid="false"
     inkscape:window-width="1570"
     inkscape:window-height="824"
     inkscape:window-x="23"
     inkscape:window-y="23"
     inkscape:window-maximized="0" />
  <metadata
     id="metadata7">
    <rdf:RDF>
      <cc:Work
         rdf:about="">
        <dc:format>image/svg+xml</dc:format>
        <dc:type
           rdf:resource="http://purl.org/dc/dcmitype/StillImage" />
        <dc:title></dc:title>
      </cc:Work>
    </rdf:RDF>
  </metadata>
  <g
     inkscape:label="Layer 1"
     inkscape:groupmode="layer"
     id="layer1"
     transform="translate(0,-952.36218)">
    <path
       style="fill:#353839;fill-opacity:1;stroke:#000000;stroke-width:1.09038221999999996px;stroke-linecap:butt;stroke-linejoin:miter;stroke-opacity:1"
       d="m 19.788144,975.05914 -4.337808,-4.44697 1.07783,6.32643 z"
       id="path3785"
       inkscape:connector-curvature="0"
       sodipodi:nodetypes="cccc" />
    <path
       style="fill:none;stroke:#000000;stroke-width:1.09038222px;stroke-linecap:butt;stroke-linejoin:miter;stroke-opacity:1"
       d="m 44.548805,1007.7281 -1.387612,1.8932 -0.413045,11.4776"
       id="path3779"
       inkscape:connector-curvature="0"
       sodipodi:nodetypes="ccc" />
    <path
       style="fill:#353839;fill-opacity:1;stroke:#00000f;stroke-width:1.09000002999999990;stroke-linecap:butt;stroke-linejoin:miter;stroke-miterlimit:4;stroke-opacity:0.94117647000000004;stroke-dasharray:none"
       d="m 86.943924,1033.8532 -1.101453,0.9638 -3.958343,-0.1721 c 0,0 0.973355,-1.5462 1.480076,-2.3062 0.301913,-0.4528 0.691042,-0.8531 0.929349,-1.3424 0.152549,-0.3132 0.287492,-0.6505 0.309784,-0.9982 0.187804,-2.929 -1.514496,-8.6739 -1.514496,-8.6739 l -6.057988,-11.2899 0.688407,4.1305 1.239134,2.6159 -0.82609,6.1957 -0.372718,5.6645 c 0,0 -0.07157,0.9416 -0.470074,1.3809 -0.23586,0.2599 -0.396341,0.5271 -0.740545,0.5959 -0.344204,0.069 -0.769459,-0.026 -1.032612,0.2065 -0.217599,0.1921 -0.267309,0.536 -0.275362,0.8261 -0.01451,0.5231 0.413044,1.5145 0.413044,1.5145 l -1.307973,0.5507 -2.065225,0.069 -1.72102,-0.2066 2.134065,-2.5471 1.721019,-1.721 c 0,0 1.225788,-4.6558 1.101452,-7.0217 -0.03739,-0.7115 -0.33699,-1.3856 -0.550725,-2.0653 -0.322299,-1.0248 -0.963187,-1.9635 -1.101453,-3.029 -0.06524,-0.5027 0.201883,-1.0116 0.137681,-1.5145 -0.240854,-1.8863 -1.927541,-5.3695 -1.927541,-5.3695 l -2.753631,-4.9566 -1.652179,-1.1014 -3.717402,1.5145 -6.195669,2.0652 -8.260893,0.2754 -4.818853,-0.1377 0.550726,9.087 0.137681,3.029 -0.137681,0.826 0.96377,3.9928 0.378624,3.7518 -1.204714,1.3424 -0.03441,1.0671 0.456069,1.2993 -1.125116,1.0649 -1.813524,0.032 -0.880293,-0.2716 -0.553634,-1.8786 1.115962,-1.884 1.182777,-1.0127 -0.762141,-3.3842 -0.201629,-4.5325 0,2.3406 0.688407,5.6449 -1.411236,1.4113 -0.653987,1.067 0.653987,1.8243 -0.980982,1.1875 -2.288955,0.1549 -1.75544,-0.1549 1.617758,-2.4267 1.548916,-2.745 0.309781,-1.1617 -0.03442,-4.3972 -1.411238,-7.6327 -0.757249,-3.8895 -0.757248,-3.8895 -2.202905,-1.6522 -1.514497,-1.3768 -0.96377,-2.6848 0,-3.51088 -7.15944,-11.49641 -1.307976,-1.44566 c 0,0 -1.212849,-0.5717 -1.8587,-0.55072 -0.464395,0.0151 -0.901186,0.25735 -1.307975,0.48188 -0.329498,0.18187 -0.555541,0.52574 -0.89493,0.68841 -0.646809,0.31001 -1.413634,0.27193 -2.091039,0.5077 -1.327257,0.46196 -2.891634,0.71721 -3.829267,1.76405 -0.338899,0.37836 -0.08828,1.12458 -0.481886,1.44565 -0.447728,0.36521 -1.143669,0.22905 -1.721019,0.20653 -0.467671,-0.0182 -0.994243,-0.006 -1.376816,-0.27536 -0.656233,-0.46247 -1.1209716,-1.27116 -1.2391336,-2.06523 -0.111403,-0.74866 0.226162,-1.51912 0.5507256,-2.2029 1.842014,-3.8807 7.710167,-10.32612 7.710167,-10.32612 l -0.826089,-4.68117 3.57972,4.13045 c 0,0 0.991305,-0.42212 1.514496,-0.41305 1.393333,0.0241 2.666218,0.81225 3.992766,1.23913 1.795976,0.57795 3.647773,1.01854 5.36958,1.78986 1.810454,0.81104 3.49748,1.88249 5.163058,2.96016 1.737988,1.12452 3.136637,2.80132 5.025376,3.64856 1.371649,0.61529 2.963997,0.53812 4.405809,0.96377 1.128214,0.33307 2.246994,0.72359 3.304358,1.23913 0.870204,0.4243 1.595674,1.11662 2.478267,1.5145 0.569072,0.25654 1.176277,0.43596 1.78986,0.55073 1.266342,0.23685 3.855084,0.27536 3.855084,0.27536 0,0 3.949423,-0.53301 5.920306,-0.82609 1.74637,-0.25969 3.471737,-0.68798 5.231898,-0.82609 1.006571,-0.079 2.026894,-0.12336 3.028995,0 1.126844,0.13872 2.21565,0.504 3.304356,0.82609 1.62831,0.48172 3.26336,0.97109 4.818855,1.65218 1.194457,0.52301 3.442039,1.8587 3.442039,1.8587 l 3.304357,2.47827 2.960152,8.32977 0.688409,8.3985 0.275363,8.9493 -10e-7,5.7827 -0.206521,4.9565 -1.307975,-7.1594 -0.82609,-7.2972 -0.550726,-7.7101 -1.996383,-5.0942 -1.858701,-7.71022 -1.721018,12.39132 0,2.2029 c 0,0 3.551093,3.8911 3.717401,6.3334 0.04053,0.5952 -0.297736,1.2502 -0.298985,1.8469 -0.0017,0.8437 0.340039,1.3353 0.574348,2.1458 0.892585,3.0878 1.652179,9.5001 1.652179,9.5001 0,0 -0.498218,0.6542 -0.722827,0.9982 -0.210875,0.3229 -0.557528,0.6135 -0.585146,0.9982 -0.02396,0.3336 0.285462,0.608 0.378623,0.9293 0.126614,0.4366 0.240946,1.3424 0.240946,1.3424 z"
       id="path3007"
       inkscape:connector-curvature="0"
       sodipodi:nodetypes="cccsssccccccssssccccccssssccccccccccccccccccccccccccccccccccccccccccccsssssssssscccssssssssscsssssccccccccccccccssscsssc" />
    <path
       sodipodi:type="arc"
       style="fill:#000000;fill-opacity:1;fill-rule:nonzero;stroke:none"
       id="path3781"
       sodipodi:cx="81.44355"
       sodipodi:cy="28.784245"
       sodipodi:rx="0.37880722"
       sodipodi:ry="0.75761443"
       d="m 81.822357,28.784245 c 0,0.418418 -0.169597,0.757614 -0.378807,0.757614 -0.209209,0 -0.378807,-0.339196 -0.378807,-0.757614 0,-0.418419 0.169598,-0.757615 0.378807,-0.757615 0.20921,0 0.378807,0.339196 0.378807,0.757615 z"
       transform="matrix(-3.3348585,0,0,0.88949783,289.52728,954.03114)" />
  </g>
</svg>
